<svg width="180" height="180" viewBox="0 0 180 180" xmlns="http://www.w3.org/2000/svg">
  <rect x="20" y="20" width="140" height="140" rx="28" fill="#e2e1e9"/>

  <!-- Calendar top bar -->
  <rect x="50" y="55" width="80" height="12" rx="6" fill="#17161f"/>

  <!-- Calendar body -->
  <rect x="50" y="70" width="80" height="55" rx="12" stroke="#17161f" stroke-width="4" fill="none"/>

  <!-- Blue square -->
  <rect x="72" y="83" width="36" height="36" rx="5" fill="#00BCF2"/>

  <!-- QR icon -->
  <!-- Top-left finder pattern -->
  <rect x="78" y="89" width="10" height="10" rx="1.5" fill="white"/>
  <rect x="80" y="91" width="6" height="6" rx="0.8" fill="#00BCF2"/>
  <rect x="81.5" y="92.5" width="3" height="3" fill="white"/>

  <!-- Top-right finder pattern -->
  <rect x="92" y="89" width="10" height="10" rx="1.5" fill="white"/>
  <rect x="94" y="91" width="6" height="6" rx="0.8" fill="#00BCF2"/>
  <rect x="95.5" y="92.5" width="3" height="3" fill="white"/>

  <!-- Bottom-left finder pattern -->
  <rect x="78" y="103" width="10" height="10" rx="1.5" fill="white"/>
  <rect x="80" y="105" width="6" height="6" rx="0.8" fill="#00BCF2"/>
  <rect x="81.5" y="106.5" width="3" height="3" fill="white"/>

  <!-- Bottom-right data dots -->
  <rect x="92" y="103" width="4" height="4" rx="0.8" fill="white"/>
  <rect x="98" y="103" width="4" height="4" rx="0.8" fill="white"/>
  <rect x="92" y="109" width="4" height="4" rx="0.8" fill="white"/>
  <rect x="98" y="109" width="4" height="4" rx="0.8" fill="white"/>
</svg>
